<?xml version="1.0" encoding="UTF-8" standalone="no"?>
<!-- Created with Inkscape (http://www.inkscape.org/) -->

<svg
   width="3.1688437in"
   height="3.1810508in"
   viewBox="0 0 80.48863 80.798691"
   version="1.1"
   id="svg5"
   inkscape:version="1.2.2 (732a01da63, 2022-12-09)"
   xml:space="preserve"
   sodipodi:docname="service-catalog.svg"
   xmlns:inkscape="http://www.inkscape.org/namespaces/inkscape"
   xmlns:sodipodi="http://sodipodi.sourceforge.net/DTD/sodipodi-0.dtd"
   xmlns="http://www.w3.org/2000/svg"
   xmlns:svg="http://www.w3.org/2000/svg"><sodipodi:namedview
     id="namedview7"
     pagecolor="#ffffff"
     bordercolor="#000000"
     borderopacity="0.25"
     inkscape:showpageshadow="2"
     inkscape:pageopacity="0.0"
     inkscape:pagecheckerboard="0"
     inkscape:deskcolor="#d1d1d1"
     inkscape:document-units="px"
     showgrid="false"
     inkscape:lockguides="true"
     inkscape:zoom="0.78127806"
     inkscape:cx="167.034"
     inkscape:cy="268.79035"
     inkscape:window-width="1845"
     inkscape:window-height="1057"
     inkscape:window-x="-8"
     inkscape:window-y="-8"
     inkscape:window-maximized="1"
     inkscape:current-layer="layer1"><inkscape:grid
       type="xygrid"
       id="grid7624"
       originx="-47.625001"
       originy="-31.750002" /></sodipodi:namedview><defs
     id="defs2" /><g
     inkscape:label="Layer 1"
     inkscape:groupmode="layer"
     id="layer1"
     transform="translate(-47.624999,-31.749999)"><path
       id="path1730"
       style="fill:#d9edf7;fill-opacity:1;stroke:#000000;stroke-width:0;stroke-linecap:round;stroke-linejoin:round;paint-order:markers fill stroke"
       d="M 87.869569,32.86792 C 66.258243,32.867805 48.738719,50.454592 48.73863,72.149091 48.73844,93.843789 66.258046,111.43089 87.869569,111.43077 109.48089,111.4306 127.00019,93.843592 127,72.149091 126.99991,50.454788 109.4807,32.868082 87.869569,32.86792 Z"
       sodipodi:nodetypes="ccccc" /><path
       id="path1170"
       style="fill:#2268ab;fill-opacity:1;stroke:#000000;stroke-width:0;stroke-linecap:round;stroke-linejoin:round;paint-order:markers fill stroke"
       d="M 87.869569,31.75 A 40.244358,40.39925 0 0 0 47.625,72.149084 40.244358,40.39925 0 0 0 87.869569,112.54869 40.244358,40.39925 0 0 0 128.11363,72.149084 40.244358,40.39925 0 0 0 87.869569,31.75 Z m 0,2.445846 A 37.807808,37.953323 0 0 1 125.67708,72.149084 37.807808,37.953323 0 0 1 87.869569,110.10284 37.807808,37.953323 0 0 1 50.061544,72.149084 37.807808,37.953323 0 0 1 87.869569,34.195846 Z" /><path
       id="rect3334"
       style="fill:#1d283a;fill-opacity:1;stroke:#000000;stroke-width:0;stroke-linecap:round;stroke-linejoin:round;paint-order:markers fill stroke"
       d="m 74.6125,51.064583 c -0.732894,0 -1.322917,0.590023 -1.322917,1.322917 v 0.529167 H 69.85 c -0.732894,0 -1.322917,0.590022 -1.322917,1.322916 v 35.71875 c 0,0.732895 0.590023,1.322917 1.322917,1.322917 h 3.439583 V 92.075 c 0,0.732894 0.590023,1.322917 1.322917,1.322917 h 28.04583 c 0.7329,0 1.32292,-0.590023 1.32292,-1.322917 V 89.958333 73.951042 h 2.11667 c 0.73289,0 1.32291,-0.590023 1.32291,-1.322917 v -6.085417 c 0,-0.732894 -0.59002,-1.322916 -1.32291,-1.322916 h -2.11667 v -1.984375 h 2.11667 c 0.73289,0 1.32291,-0.590023 1.32291,-1.322917 v -6.085417 c 0,-0.732894 -0.59002,-1.322916 -1.32291,-1.322916 h -2.11667 V 54.239583 52.3875 c 0,-0.732894 -0.59002,-1.322917 -1.32292,-1.322917 z M 73.025,57.15 h 0.910022 V 87.047917 H 73.025 Z" /><path
       id="path3398"
       style="fill:#d9edf7;fill-opacity:1;stroke:#000000;stroke-width:0;stroke-linecap:round;stroke-linejoin:round;paint-order:markers fill stroke"
       d="m 88.676241,63.764583 c 3.046135,-1.2e-4 5.515546,2.469291 5.515426,5.515426 -1.66e-4,3.045933 -2.469493,5.515029 -5.515426,5.514909 -3.045732,-1.66e-4 -5.514743,-2.469177 -5.514909,-5.514909 -1.2e-4,-3.045933 2.468976,-5.51526 5.514909,-5.515426 z m 0,1.058334 c -2.461431,1.66e-4 -4.456694,1.99566 -4.456575,4.457092 1.66e-4,2.46123 1.995345,4.456409 4.456575,4.456575 2.461432,1.19e-4 4.456926,-1.995144 4.457092,-4.456575 1.19e-4,-2.461633 -1.995459,-4.457211 -4.457092,-4.457092 z"
       sodipodi:nodetypes="cccccccccc" /><path
       id="path5394"
       style="opacity:1;fill:#d9edf7;fill-opacity:1;stroke:#000000;stroke-width:0;stroke-linecap:round;stroke-linejoin:round;paint-order:markers fill stroke"
       inkscape:transform-center-x="-3.7292305"
       inkscape:transform-center-y="-0.90313978"
       d="m 86.426249,57.15 c -0.264584,0 -0.531514,0.231639 -0.568957,0.497644 l -0.227893,1.619023 c -0.02591,0.184083 -0.09358,0.193562 -0.264584,0.264583 l -1.326803,0.551578 c -0.0852,0.03542 -0.139973,0.07627 -0.288085,-0.03533 l -1.305864,-0.98392 c -0.214542,-0.161651 -0.566865,-0.136969 -0.753959,0.05013 l -3.180684,3.180685 c -0.187089,0.18709 -0.212297,0.539415 -0.05064,0.753959 l 0.983919,1.305863 c 0.111869,0.148474 0.07087,0.203592 0,0.374655 l -0.514697,1.242301 c -0.07087,0.171064 -0.08049,0.238729 -0.264583,0.264583 l -1.619023,0.227377 c -0.26602,0.03736 -0.497644,0.304373 -0.497644,0.568957 v 4.497917 c 0,0.264583 0.231644,0.531514 0.497644,0.568957 l 1.619023,0.227893 c 0.184083,0.02591 0.193504,0.0936 0.264583,0.264584 l 0.516231,1.241784 c 0.04774,0.11484 0.11158,0.224992 -1.7e-5,0.373104 l -0.983919,1.305864 c -0.161651,0.214542 -0.136967,0.566863 0.05013,0.753959 l 3.180685,3.180684 c 0.18709,0.187089 0.539415,0.212297 0.753959,0.05064 l 1.305863,-0.983919 c 0.148474,-0.111869 0.20359,-0.07087 0.374654,0 l 1.242302,0.514697 c 0.171064,0.07087 0.238729,0.08049 0.264583,0.264583 l 0.227376,1.619023 c 0.03736,0.266016 0.304374,0.497644 0.568958,0.497644 h 4.497917 c 0.264583,0 0.531514,-0.231639 0.568957,-0.497644 L 91.7236,79.292834 c 0.02591,-0.184083 0.09358,-0.193562 0.264584,-0.264583 l 1.326803,-0.551561 c 0.08519,-0.03542 0.139973,-0.07625 0.288085,0.03535 l 1.305864,0.983919 c 0.214542,0.161651 0.566862,0.136967 0.753959,-0.05013 l 3.180684,-3.180685 c 0.187089,-0.18709 0.212297,-0.539415 0.05064,-0.753959 L 97.910303,74.20529 c -0.111869,-0.148474 -0.07087,-0.203591 0,-0.374654 L 98.425,72.588334 c 0.07087,-0.171064 0.08049,-0.238729 0.264583,-0.264583 l 1.619027,-0.227376 c 0.26602,-0.03736 0.49764,-0.304374 0.49764,-0.568958 V 67.0295 c 0,-0.264582 -0.23164,-0.531514 -0.49764,-0.568957 L 98.689583,66.23265 C 98.5055,66.20674 98.496021,66.13907 98.425,65.968066 l -0.608299,-1.241784 c -0.04072,-0.08313 -0.01951,-0.224992 0.09208,-0.373104 l 0.98392,-1.305864 c 0.161651,-0.214542 0.136966,-0.566863 -0.05013,-0.753959 L 95.66189,59.112671 c -0.18709,-0.187089 -0.539415,-0.212297 -0.753959,-0.05064 l -1.305863,0.983919 c -0.148474,0.111869 -0.203591,0.07087 -0.374655,0 l -1.24233,-0.5147 C 91.814018,59.460376 91.746354,59.450758 91.7205,59.266667 L 91.493123,57.647644 C 91.455763,57.381628 91.18875,57.15 90.924166,57.15 Z m 1.322917,1.5875 h 1.852083 c 0.264584,0 0.492851,0.26449 0.531751,0.529167 L 90.288546,60.325 c 0.03379,0.229923 0.125488,0.259969 0.37362,0.362769 l 2.683041,1.11156 c 0.248133,0.1028 0.334542,0.146473 0.520898,0.0078 l 0.858346,-0.638721 c 0.214616,-0.159702 0.563238,-0.185076 0.750341,0.0021 l 1.309481,1.309998 c 0.187052,0.187126 0.161696,0.535177 0.0021,0.749825 l -0.638204,0.858346 c -0.138658,0.186488 -0.09087,0.271026 0.0078,0.520898 l 1.11206,2.816043 c 0.04923,0.124667 0.133345,0.205275 0.363269,0.239068 l 1.058333,0.155546 c 0.264677,0.0389 0.529167,0.267683 0.529167,0.532267 V 70.2045 c 0,0.264584 -0.26449,0.492851 -0.529167,0.531751 l -1.058333,0.155546 c -0.229923,0.03379 -0.259969,0.125488 -0.362769,0.37362 l -1.11156,2.683041 c -0.1028,0.248135 -0.146473,0.334542 -0.0078,0.520898 l 0.638721,0.858346 c 0.159702,0.214618 0.185078,0.563238 -0.0021,0.750342 l -1.309998,1.30948 c -0.187126,0.187052 -0.535177,0.161696 -0.749825,0.0021 l -0.858346,-0.638203 c -0.186488,-0.13866 -0.272739,-0.09511 -0.520898,0.0078 L 90.54091,77.92273 c -0.124023,0.05143 -0.215539,0.0819 -0.249332,0.311819 L 90.1361,79.292834 c -0.0389,0.264677 -0.267683,0.529167 -0.532267,0.529167 H 87.75175 c -0.264584,0 -0.492851,-0.26449 -0.531751,-0.529167 l -0.155546,-1.058333 c -0.03379,-0.229923 -0.125488,-0.259969 -0.37362,-0.362768 l -2.683041,-1.11156 c -0.248134,-0.1028 -0.334541,-0.146473 -0.520898,-0.0078 l -0.858346,0.638721 c -0.214617,0.159703 -0.563238,0.185078 -0.750342,-0.0021 l -1.30948,-1.309998 c -0.187052,-0.187126 -0.161696,-0.535177 -0.0021,-0.749825 l 0.638203,-0.858345 c 0.138659,-0.186489 0.09092,-0.271046 -0.0078,-0.520899 l -1.112077,-2.816042 c -0.04923,-0.124668 -0.133361,-0.205276 -0.363285,-0.239069 L 78.663334,70.73927 c -0.264677,-0.0389 -0.529167,-0.267683 -0.529167,-0.532267 V 68.35492 c 0,-0.264584 0.26449,-0.492851 0.529167,-0.531751 l 1.058333,-0.155546 c 0.229923,-0.03379 0.259969,-0.125488 0.362768,-0.37362 l 1.11156,-2.683041 c 0.1028,-0.248134 0.146443,-0.334518 0.0078,-0.520898 l -0.638721,-0.858346 c -0.159703,-0.214617 -0.185094,-0.563254 0.0021,-0.750341 l 1.309998,-1.309481 c 0.187126,-0.187052 0.535162,-0.161675 0.749825,-0.0021 L 83.485342,61.808 c 0.186489,0.138659 0.272738,0.0951 0.520899,-0.0078 l 2.682007,-1.11156 -0.001,-10e-4 h 5.17e-4 c 0.268588,0 0.339828,-0.132845 0.373621,-0.362769 l 0.155546,-1.058333 c 0.0389,-0.264677 0.267683,-0.529167 0.532267,-0.529167 z"
       sodipodi:nodetypes="ssssssssssssssssssssssssssssssssssssssssssssssssssssssssssssssssssssssssssssssssssssssssssssssssssssssssssssssssssssssssssssssccsssss" /></g></svg>
