<?xml version="1.0" encoding="UTF-8" standalone="no"?>
<!-- Created with Inkscape (http://www.inkscape.org/) -->

<svg
   width="2.5520835in"
   height="2.552083in"
   viewBox="0 0 64.822921 64.822909"
   version="1.1"
   id="svg5"
   inkscape:version="1.2.2 (732a01da63, 2022-12-09)"
   xml:space="preserve"
   sodipodi:docname="tickets-logo.svg"
   xmlns:inkscape="http://www.inkscape.org/namespaces/inkscape"
   xmlns:sodipodi="http://sodipodi.sourceforge.net/DTD/sodipodi-0.dtd"
   xmlns="http://www.w3.org/2000/svg"
   xmlns:svg="http://www.w3.org/2000/svg"><sodipodi:namedview
     id="namedview7"
     pagecolor="#ffffff"
     bordercolor="#000000"
     borderopacity="0.25"
     inkscape:showpageshadow="2"
     inkscape:pageopacity="0.0"
     inkscape:pagecheckerboard="0"
     inkscape:deskcolor="#d1d1d1"
     inkscape:document-units="px"
     showgrid="false"
     inkscape:lockguides="true"
     inkscape:zoom="1.5625561"
     inkscape:cx="-152.63452"
     inkscape:cy="179.19356"
     inkscape:window-width="1845"
     inkscape:window-height="1057"
     inkscape:window-x="-8"
     inkscape:window-y="-8"
     inkscape:window-maximized="1"
     inkscape:current-layer="layer1"><inkscape:grid
       type="xygrid"
       id="grid7624"
       originx="-115.75521"
       originy="-103.1875" /></sodipodi:namedview><defs
     id="defs2" /><g
     inkscape:label="Layer 1"
     inkscape:groupmode="layer"
     id="layer1"
     transform="translate(-115.75521,-103.1875)"><path
       id="path10558"
       style="fill:#d9edf7;fill-opacity:1;stroke:#0035ff;stroke-width:0;stroke-linecap:round;stroke-linejoin:round;stroke-opacity:1;paint-order:markers fill stroke"
       d="m 148.16667,103.1875 c -17.90036,0 -32.41146,14.5111 -32.41146,32.41146 0,17.90035 14.51111,32.41145 32.41146,32.41145 17.90035,0 32.41145,-14.5111 32.41146,-32.41145 0,-17.90036 -14.51111,-32.41146 -32.41146,-32.41146 z"
       sodipodi:nodetypes="sssss" /><path
       id="path9952"
       style="fill:#2268ab;fill-opacity:1;stroke:#0035ff;stroke-width:0;stroke-linecap:round;stroke-linejoin:round;stroke-opacity:1;paint-order:markers fill stroke"
       d="m 148.16667,103.1875 a 32.411457,32.411461 0 0 0 -32.41146,32.41146 32.411457,32.411461 0 0 0 32.41146,32.41145 32.411457,32.411461 0 0 0 32.41146,-32.41145 32.411457,32.411461 0 0 0 -32.41146,-32.41146 z m -0.13229,2.11666 a 30.1625,30.1625 0 0 1 30.1625,30.1625 30.1625,30.1625 0 0 1 -30.1625,30.1625 30.1625,30.1625 0 0 1 -30.1625,-30.1625 30.1625,30.1625 0 0 1 30.1625,-30.1625 z" /><path
       id="path10476"
       style="fill:#1d283a;fill-opacity:1;stroke:#0035ff;stroke-width:0;stroke-linecap:round;stroke-linejoin:round;stroke-opacity:1;paint-order:markers fill stroke"
       d="m 148.96275,117.73829 c -0.10244,5.7e-4 -0.20515,0.003 -0.308,0.007 a 17.859375,17.859375 0 0 0 -0.48679,-0.007 17.859375,17.859375 0 0 0 -0.001,0 17.859375,17.859375 0 0 0 -0.002,0 17.859375,17.859375 0 0 0 -0.78032,0.03 17.859375,17.859375 0 0 0 -0.50849,0.0191 17.859375,17.859375 0 0 0 -0.0124,0.001 17.859375,17.859375 0 0 0 -0.0326,10e-4 17.859375,17.859375 0 0 0 -0.0196,0.002 17.859375,17.859375 0 0 0 -0.006,5.2e-4 17.859375,17.859375 0 0 0 -1.24799,0.14004 17.859375,17.859375 0 0 0 -0.0202,0.003 17.859375,17.859375 0 0 0 -0.0202,0.002 17.859375,17.859375 0 0 0 -0.015,0.003 17.859375,17.859375 0 0 0 -0.031,0.005 17.859375,17.859375 0 0 0 -0.31832,0.0605 17.859375,17.859375 0 0 0 -0.89762,0.1695 17.859375,17.859375 0 0 0 -0.009,0.002 17.859375,17.859375 0 0 0 -0.0279,0.005 17.859375,17.859375 0 0 0 -0.0222,0.006 17.859375,17.859375 0 0 0 -0.0527,0.0119 17.859375,17.859375 0 0 0 -0.4253,0.11421 17.859375,17.859375 0 0 0 -0.75189,0.20102 17.859375,17.859375 0 0 0 -0.0134,0.004 17.859375,17.859375 0 0 0 -0.0134,0.004 17.859375,17.859375 0 0 0 -0.015,0.005 17.859375,17.859375 0 0 0 -0.077,0.0238 17.859375,17.859375 0 0 0 -0.45992,0.16123 17.859375,17.859375 0 0 0 -0.69815,0.24391 17.859375,17.859375 0 0 0 -5.2e-4,5.2e-4 17.859375,17.859375 0 0 0 -0.094,0.0367 17.859375,17.859375 0 0 0 -0.44906,0.19637 17.859375,17.859375 0 0 0 -0.67542,0.29455 17.859375,17.859375 0 0 0 -0.0119,0.005 17.859375,17.859375 0 0 0 -0.0837,0.0408 17.859375,17.859375 0 0 0 -0.45578,0.24081 17.859375,17.859375 0 0 0 -0.64337,0.33951 17.859375,17.859375 0 0 0 -0.0858,0.0501 17.859375,17.859375 0 0 0 -0.4718,0.29662 17.859375,17.859375 0 0 0 -0.53537,0.33641 17.859375,17.859375 0 0 0 -0.0548,0.0341 17.859375,17.859375 0 0 0 -0.0532,0.0367 17.859375,17.859375 0 0 0 -0.46096,0.34055 17.859375,17.859375 0 0 0 -0.50074,0.36948 17.859375,17.859375 0 0 0 -0.0703,0.0517 17.859375,17.859375 0 0 0 -0.0305,0.0248 17.859375,17.859375 0 0 0 -0.45269,0.38964 17.859375,17.859375 0 0 0 -0.45217,0.38912 17.859375,17.859375 0 0 0 -0.0806,0.0692 17.859375,17.859375 0 0 0 -0.0222,0.0212 17.859375,17.859375 0 0 0 -0.42582,0.42582 17.859375,17.859375 0 0 0 -0.41289,0.41289 17.859375,17.859375 0 0 0 -0.0878,0.0879 17.859375,17.859375 0 0 0 -0.004,0.004 17.859375,17.859375 0 0 0 -0.002,0.002 17.859375,17.859375 0 0 0 -0.38137,0.44287 17.859375,17.859375 0 0 0 -0.0181,0.0207 17.859375,17.859375 0 0 0 -0.37775,0.43873 17.859375,17.859375 0 0 0 -0.004,0.006 17.859375,17.859375 0 0 0 -0.078,0.0904 17.859375,17.859375 0 0 0 -0.016,0.0196 17.859375,17.859375 0 0 0 -0.33951,0.45992 17.859375,17.859375 0 0 0 -0.0176,0.0232 17.859375,17.859375 0 0 0 -0.33848,0.45837 17.859375,17.859375 0 0 0 -0.006,0.008 17.859375,17.859375 0 0 0 -0.0672,0.0915 17.859375,17.859375 0 0 0 -0.0315,0.045 17.859375,17.859375 0 0 0 -0.30489,0.48524 17.859375,17.859375 0 0 0 -0.006,0.009 17.859375,17.859375 0 0 0 -0.29766,0.47336 17.859375,17.859375 0 0 0 -0.003,0.006 17.859375,17.859375 0 0 0 -0.0708,0.11266 17.859375,17.859375 0 0 0 -0.0269,0.0465 17.859375,17.859375 0 0 0 -0.262,0.49506 17.859375,17.859375 0 0 0 -0.009,0.0176 17.859375,17.859375 0 0 0 -0.25735,0.48731 17.859375,17.859375 0 0 0 -0.001,0.002 17.859375,17.859375 0 0 0 -0.0734,0.13901 17.859375,17.859375 0 0 0 -0.0176,0.0362 17.859375,17.859375 0 0 0 -0.22066,0.50539 17.859375,17.859375 0 0 0 -0.005,0.0119 17.859375,17.859375 0 0 0 -0.22427,0.51366 17.859375,17.859375 0 0 0 -0.003,0.008 17.859375,17.859375 0 0 0 -0.0615,0.14108 17.859375,17.859375 0 0 0 -0.0217,0.0553 17.859375,17.859375 0 0 0 -0.17932,0.51211 17.859375,17.859375 0 0 0 -0.006,0.0165 17.859375,17.859375 0 0 0 -0.17622,0.5023 17.859375,17.859375 0 0 0 -0.003,0.01 17.859375,17.859375 0 0 0 -0.0589,0.16744 17.859375,17.859375 0 0 0 -0.0165,0.0543 17.859375,17.859375 0 0 0 -0.13901,0.51986 17.859375,17.859375 0 0 0 -0.004,0.0119 17.859375,17.859375 0 0 0 -0.13797,0.51314 17.859375,17.859375 0 0 0 -0.003,0.0145 17.859375,17.859375 0 0 0 -0.0496,0.18552 17.859375,17.859375 0 0 0 -0.008,0.0351 17.859375,17.859375 0 0 0 -0.0966,0.5116 17.859375,17.859375 0 0 0 -0.007,0.031 17.859375,17.859375 0 0 0 -0.0775,0.36794 c -0.18424,0.73611 -0.26837,1.48542 -0.26407,2.24586 6.1e-4,0.10862 0.004,0.21751 0.008,0.32659 a 17.859375,17.859375 0 0 0 -0.006,0.40928 17.859375,17.859375 0 0 0 -0.002,0.062 17.859375,17.859375 0 0 0 0.0501,1.32499 17.859375,17.859375 0 0 0 0.0801,0.7152 17.859375,17.859375 0 0 0 0.0646,0.58032 17.859375,17.859375 0 0 0 0.002,0.008 17.859375,17.859375 0 0 0 0.17105,0.91932 17.859375,17.859375 0 0 0 0.0129,0.0687 17.859375,17.859375 0 0 0 0.0589,0.31006 17.859375,17.859375 0 0 0 0.22893,0.86868 17.859375,17.859375 0 0 0 0.11058,0.41238 17.859375,17.859375 0 0 0 0.27647,0.80305 17.859375,17.859375 0 0 0 0.0388,0.11265 17.859375,17.859375 0 0 0 0.11369,0.32505 17.859375,17.859375 0 0 0 0.004,0.01 17.859375,17.859375 0 0 0 0.31575,0.73638 17.859375,17.859375 0 0 0 0.0532,0.12403 17.859375,17.859375 0 0 0 0.15245,0.3483 17.859375,17.859375 0 0 0 0.004,0.007 17.859375,17.859375 0 0 0 0.37155,0.71675 17.859375,17.859375 0 0 0 0.0424,0.0816 17.859375,17.859375 0 0 0 0.19534,0.36845 17.859375,17.859375 0 0 0 5.2e-4,0.001 17.859375,17.859375 0 0 0 0.43511,0.7059 17.859375,17.859375 0 0 0 0.008,0.0129 17.859375,17.859375 0 0 0 0.25839,0.41186 17.859375,17.859375 0 0 0 0.005,0.006 17.859375,17.859375 0 0 0 0.4656,0.64286 17.859375,17.859375 0 0 0 0.0207,0.0289 17.859375,17.859375 0 0 0 0.28526,0.38654 17.859375,17.859375 0 0 0 0.003,0.004 17.859375,17.859375 0 0 0 0.50643,0.60152 17.859375,17.859375 0 0 0 0.0279,0.0331 17.859375,17.859375 0 0 0 0.32143,0.3731 17.859375,17.859375 0 0 0 0.003,0.003 17.859375,17.859375 0 0 0 0.54467,0.5581 17.859375,17.859375 0 0 0 0.0212,0.0217 17.859375,17.859375 0 0 0 0.36122,0.36121 17.859375,17.859375 0 0 0 0.005,0.004 17.859375,17.859375 0 0 0 0.59014,0.52141 17.859375,17.859375 0 0 0 0.0243,0.0212 17.859375,17.859375 0 0 0 0.37311,0.32091 17.859375,17.859375 0 0 0 0.004,0.003 17.859375,17.859375 0 0 0 0.62684,0.47698 17.859375,17.859375 0 0 0 0.0305,0.0233 17.859375,17.859375 0 0 0 0.39842,0.29352 17.859375,17.859375 0 0 0 0.002,0.002 17.859375,17.859375 0 0 0 0.65887,0.42839 17.859375,17.859375 0 0 0 0.0253,0.0165 17.859375,17.859375 0 0 0 0.42788,0.26872 17.859375,17.859375 0 0 0 0.005,0.003 17.859375,17.859375 0 0 0 0.6935,0.38137 17.859375,17.859375 0 0 0 0.0171,0.009 17.859375,17.859375 0 0 0 0.44701,0.23617 17.859375,17.859375 0 0 0 0.006,0.003 17.859375,17.859375 0 0 0 0.71003,0.32504 17.859375,17.859375 0 0 0 0.0295,0.0134 17.859375,17.859375 0 0 0 0.46044,0.20102 17.859375,17.859375 0 0 0 0.0103,0.004 17.859375,17.859375 0 0 0 0.74259,0.27543 17.859375,17.859375 0 0 0 0.0134,0.005 17.859375,17.859375 0 0 0 0.48007,0.16795 17.859375,17.859375 0 0 0 0.002,5.2e-4 17.859375,17.859375 0 0 0 0.77928,0.22531 17.859375,17.859375 0 0 0 0.48989,0.13125 17.859375,17.859375 0 0 0 0.78807,0.1664 17.859375,17.859375 0 0 0 0.009,0.002 17.859375,17.859375 0 0 0 0.35657,0.0754 c 0.7361,0.18424 1.48541,0.26836 2.24586,0.26406 v -0.001 c 0.10862,-6.1e-4 0.2175,-0.004 0.32659,-0.008 a 17.859375,17.859375 0 0 0 0.40669,0.006 17.859375,17.859375 0 0 0 0.0599,0.003 17.859375,17.859375 0 0 0 0.003,0 17.859375,17.859375 0 0 0 0.0403,-0.002 17.859375,17.859375 0 0 0 1.25005,-0.047 17.859375,17.859375 0 0 0 0.031,-0.002 17.859375,17.859375 0 0 0 0.014,-5.2e-4 17.859375,17.859375 0 0 0 0.008,-0.001 17.859375,17.859375 0 0 0 0.0171,-10e-4 17.859375,17.859375 0 0 0 1.24799,-0.14004 17.859375,17.859375 0 0 0 0.0367,-0.005 17.859375,17.859375 0 0 0 0.004,-5.1e-4 17.859375,17.859375 0 0 0 0.003,-5.2e-4 17.859375,17.859375 0 0 0 0.0434,-0.006 17.859375,17.859375 0 0 0 1.21594,-0.22996 17.859375,17.859375 0 0 0 0.0243,-0.006 17.859375,17.859375 0 0 0 0.0124,-0.002 17.859375,17.859375 0 0 0 0.01,-0.003 17.859375,17.859375 0 0 0 0.0651,-0.0145 17.859375,17.859375 0 0 0 1.17718,-0.31522 17.859375,17.859375 0 0 0 0.0264,-0.008 17.859375,17.859375 0 0 0 5.2e-4,0 17.859375,17.859375 0 0 0 5.1e-4,-5.2e-4 17.859375,17.859375 0 0 0 0.0915,-0.0279 17.859375,17.859375 0 0 0 1.15807,-0.40515 17.859375,17.859375 0 0 0 0.0946,-0.0372 17.859375,17.859375 0 0 0 1.13636,-0.4961 17.859375,17.859375 0 0 0 0.0837,-0.0408 17.859375,17.859375 0 0 0 1.09916,-0.58033 17.859375,17.859375 0 0 0 0.0858,-0.0501 17.859375,17.859375 0 0 0 1.06195,-0.66715 17.859375,17.859375 0 0 0 0.0532,-0.0367 17.859375,17.859375 0 0 0 1.03198,-0.76171 17.859375,17.859375 0 0 0 0.0305,-0.0248 17.859375,17.859375 0 0 0 0.98547,-0.84801 17.859375,17.859375 0 0 0 0.0222,-0.0212 17.859375,17.859375 0 0 0 0.42582,-0.42633 17.859375,17.859375 0 0 0 0.41289,-0.4129 17.859375,17.859375 0 0 0 0.0879,-0.0873 17.859375,17.859375 0 0 0 0.004,-0.004 17.859375,17.859375 0 0 0 0.002,-0.002 17.859375,17.859375 0 0 0 0.39946,-0.46457 17.859375,17.859375 0 0 0 0.37775,-0.43874 17.859375,17.859375 0 0 0 0.0822,-0.0951 17.859375,17.859375 0 0 0 0.016,-0.0196 17.859375,17.859375 0 0 0 0.35708,-0.48421 17.859375,17.859375 0 0 0 0.33848,-0.45837 17.859375,17.859375 0 0 0 0.0729,-0.0987 17.859375,17.859375 0 0 0 0.0315,-0.045 17.859375,17.859375 0 0 0 0.60823,-0.96841 17.859375,17.859375 0 0 0 0.0739,-0.11731 17.859375,17.859375 0 0 0 0.0269,-0.0465 17.859375,17.859375 0 0 0 0.2713,-0.51366 17.859375,17.859375 0 0 0 0.33176,-0.62735 17.859375,17.859375 0 0 0 0.0176,-0.0362 17.859375,17.859375 0 0 0 0.22583,-0.51831 17.859375,17.859375 0 0 0 0.1602,-0.3669 17.859375,17.859375 0 0 0 0.0641,-0.14677 17.859375,17.859375 0 0 0 5.1e-4,-0.001 17.859375,17.859375 0 0 0 0.0641,-0.14728 17.859375,17.859375 0 0 0 0.0217,-0.0553 17.859375,17.859375 0 0 0 0.18551,-0.52968 17.859375,17.859375 0 0 0 0.0196,-0.0563 17.859375,17.859375 0 0 0 0.15658,-0.44597 17.859375,17.859375 0 0 0 10e-4,-0.004 17.859375,17.859375 0 0 0 0.0605,-0.1726 17.859375,17.859375 0 0 0 0.0165,-0.0543 17.859375,17.859375 0 0 0 0.14263,-0.53278 17.859375,17.859375 0 0 0 0.006,-0.0212 17.859375,17.859375 0 0 0 0.1323,-0.49196 17.859375,17.859375 0 0 0 0.002,-0.01 17.859375,17.859375 0 0 0 0.0506,-0.18913 17.859375,17.859375 0 0 0 0.008,-0.0351 17.859375,17.859375 0 0 0 0.0987,-0.52193 17.859375,17.859375 0 0 0 0.005,-0.0217 17.859375,17.859375 0 0 0 0.0775,-0.36793 c 0.18424,-0.73611 0.26837,-1.48542 0.26407,-2.24586 -6.1e-4,-0.10862 -0.004,-0.21752 -0.008,-0.3266 a 17.859375,17.859375 0 0 0 0.005,-0.40876 17.859375,17.859375 0 0 0 0.003,-0.062 17.859375,17.859375 0 0 0 -0.001,-0.0217 17.859375,17.859375 0 0 0 -0.0476,-1.27331 17.859375,17.859375 0 0 0 -0.002,-0.0295 17.859375,17.859375 0 0 0 -0.14366,-1.28726 17.859375,17.859375 0 0 0 -0.001,-0.009 17.859375,17.859375 0 0 0 -0.001,-0.006 17.859375,17.859375 0 0 0 -0.2434,-1.29966 17.859375,17.859375 0 0 0 -14.40015,-13.67462 c -0.72929,-0.18057 -1.47153,-0.26316 -2.22467,-0.2589 z m -7.91993,2.95227 3.30987,6.62027 a 9.1281195,9.1281195 0 0 0 -4.47414,4.47363 l -6.61562,-3.30781 a 16.536459,16.536459 0 0 1 0.16898,-0.35605 16.536459,16.536459 0 0 1 0.20671,-0.39222 16.536459,16.536459 0 0 1 0.45475,-0.78807 16.536459,16.536459 0 0 1 0.20877,-0.32918 16.536459,16.536459 0 0 1 0.54571,-0.79168 16.536459,16.536459 0 0 1 0.2036,-0.26975 16.536459,16.536459 0 0 1 0.63665,-0.78187 16.536459,16.536459 0 0 1 0.20051,-0.22479 16.536459,16.536459 0 0 1 0.71727,-0.74982 16.536459,16.536459 0 0 1 0.19895,-0.19017 16.536459,16.536459 0 0 1 0.80254,-0.71314 16.536459,16.536459 0 0 1 0.17673,-0.14417 16.536459,16.536459 0 0 1 0.89142,-0.67231 16.536459,16.536459 0 0 1 0.1602,-0.11008 16.536459,16.536459 0 0 1 0.96893,-0.61546 16.536459,16.536459 0 0 1 0.13849,-0.0801 16.536459,16.536459 0 0 1 1.05213,-0.55449 16.536459,16.536459 0 0 1 0.0476,-0.0227 z m 14.24564,0.004 a 16.536459,16.536459 0 0 1 0.34261,0.16278 16.536459,16.536459 0 0 1 0.42375,0.22376 16.536459,16.536459 0 0 1 0.74931,0.43202 16.536459,16.536459 0 0 1 0.37155,0.23564 16.536459,16.536459 0 0 1 0.75241,0.51883 16.536459,16.536459 0 0 1 0.30851,0.23306 16.536459,16.536459 0 0 1 0.74311,0.60462 16.536459,16.536459 0 0 1 0.25889,0.23047 16.536459,16.536459 0 0 1 0.72864,0.69815 16.536459,16.536459 0 0 1 0.19792,0.20619 16.536459,16.536459 0 0 1 0.70797,0.79685 16.536459,16.536459 0 0 1 0.15038,0.185 16.536459,16.536459 0 0 1 0.65836,0.87282 16.536459,16.536459 0 0 1 0.1297,0.1881 16.536459,16.536459 0 0 1 0.60048,0.94568 16.536459,16.536459 0 0 1 0.0899,0.15658 16.536459,16.536459 0 0 1 0.54364,1.02939 16.536459,16.536459 0 0 1 0.0284,0.0605 l -6.61665,3.3078 a 9.1281195,9.1281195 0 0 0 -4.4757,-4.47518 z m -7.12205,7.62899 a 7.2760401,7.2760415 0 0 1 0.75603,0.0403 7.2760286,7.2760286 0 0 1 0.0212,0.002 7.2760401,7.2760415 0 0 1 0.7431,0.11885 7.2760286,7.2760286 0 0 1 0.0145,0.003 7.2760401,7.2760415 0 0 1 0.73484,0.19896 7.2760401,7.2760415 0 0 1 0.71675,0.27853 7.2760286,7.2760286 0 0 1 3.64733,3.64629 7.2760401,7.2760415 0 0 1 0.27853,0.71727 7.2760401,7.2760415 0 0 1 0.19844,0.73071 7.2760286,7.2760286 0 0 1 0.005,0.0227 7.2760401,7.2760415 0 0 1 0.11834,0.73846 7.2760286,7.2760286 0 0 1 0.002,0.0238 7.2760401,7.2760415 0 0 1 0.0403,0.755 7.2760401,7.2760415 0 0 1 -0.64492,2.98379 l 0.004,0.002 a 7.2760286,7.2760286 0 0 1 -3.64681,3.64784 l -0.002,-0.004 a 7.2760401,7.2760415 0 0 1 -2.98587,0.64596 7.2760401,7.2760415 0 0 1 -0.71417,-0.0388 7.2760286,7.2760286 0 0 1 -0.15658,-0.0196 7.2760401,7.2760415 0 0 1 -0.57412,-0.0925 7.2760286,7.2760286 0 0 1 -0.14521,-0.0305 7.2760401,7.2760415 0 0 1 -0.67851,-0.185 7.2760401,7.2760415 0 0 1 -0.71624,-0.27905 l -0.001,0.002 a 7.2760286,7.2760286 0 0 1 -3.64681,-3.64681 l 0.002,-0.001 a 7.2760401,7.2760415 0 0 1 -0.27802,-0.71314 7.2760401,7.2760415 0 0 1 -0.004,-0.0145 7.2760401,7.2760415 0 0 1 -0.18139,-0.66662 7.2760286,7.2760286 0 0 1 -0.03,-0.14418 7.2760401,7.2760415 0 0 1 -0.0935,-0.57774 7.2760286,7.2760286 0 0 1 -0.0191,-0.15348 7.2760401,7.2760415 0 0 1 -0.0388,-0.71468 7.2760401,7.2760415 0 0 1 0.0388,-0.71417 7.2760286,7.2760286 0 0 1 0.0196,-0.1571 7.2760401,7.2760415 0 0 1 0.0925,-0.57206 7.2760286,7.2760286 0 0 1 0.031,-0.14883 7.2760401,7.2760415 0 0 1 0.18345,-0.67386 7.2760401,7.2760415 0 0 1 0.002,-0.004 7.2760401,7.2760415 0 0 1 0.27906,-0.71572 l -0.002,-0.001 a 7.2760286,7.2760286 0 0 1 3.64577,-3.64526 l 10e-4,0.002 a 7.2760401,7.2760415 0 0 1 0.71624,-0.27905 7.2760401,7.2760415 0 0 1 0.67851,-0.185 7.2760286,7.2760286 0 0 1 0.14521,-0.0305 7.2760401,7.2760415 0 0 1 0.57412,-0.0925 7.2760286,7.2760286 0 0 1 0.15658,-0.0196 7.2760401,7.2760415 0 0 1 0.71417,-0.0388 z m -8.28838,11.08925 a 9.1281195,9.1281195 0 0 0 4.47466,4.47518 l -3.30729,6.61406 a 16.536459,16.536459 0 0 1 -0.35863,-0.17001 16.536459,16.536459 0 0 1 -0.39171,-0.20671 16.536459,16.536459 0 0 1 -0.7829,-0.45113 16.536459,16.536459 0 0 1 -0.33486,-0.21291 16.536459,16.536459 0 0 1 -0.78962,-0.54415 16.536459,16.536459 0 0 1 -0.26975,-0.20361 16.536459,16.536459 0 0 1 -0.78186,-0.63665 16.536459,16.536459 0 0 1 -0.22428,-0.19999 16.536459,16.536459 0 0 1 -0.75034,-0.71778 16.536459,16.536459 0 0 1 -0.19017,-0.19896 16.536459,16.536459 0 0 1 -0.71107,-0.79995 16.536459,16.536459 0 0 1 -0.14986,-0.18448 16.536459,16.536459 0 0 1 -0.66663,-0.88367 16.536459,16.536459 0 0 1 -0.11265,-0.16382 16.536459,16.536459 0 0 1 -0.61495,-0.96738 16.536459,16.536459 0 0 1 -0.0811,-0.14159 16.536459,16.536459 0 0 1 -0.55087,-1.04387 16.536459,16.536459 0 0 1 -0.0253,-0.0532 z m 16.5809,0.001 6.61148,3.30574 a 16.536459,16.536459 0 0 1 -0.16898,0.35605 16.536459,16.536459 0 0 1 -0.20671,0.39223 16.536459,16.536459 0 0 1 -0.45475,0.78806 16.536459,16.536459 0 0 1 -0.20877,0.32918 16.536459,16.536459 0 0 1 -0.5457,0.79169 16.536459,16.536459 0 0 1 -0.20361,0.26975 16.536459,16.536459 0 0 1 -0.63665,0.78186 16.536459,16.536459 0 0 1 -0.20051,0.22479 16.536459,16.536459 0 0 1 -0.71727,0.74983 16.536459,16.536459 0 0 1 -0.19895,0.19017 16.536459,16.536459 0 0 1 -0.80254,0.71313 16.536459,16.536459 0 0 1 -0.17673,0.14418 16.536459,16.536459 0 0 1 -0.89142,0.67231 16.536459,16.536459 0 0 1 -0.16019,0.11007 16.536459,16.536459 0 0 1 -0.96894,0.61547 16.536459,16.536459 0 0 1 -0.13849,0.0801 16.536459,16.536459 0 0 1 -1.05213,0.55448 16.536459,16.536459 0 0 1 -0.0475,0.0227 l -3.30781,-6.61458 a 9.1281195,9.1281195 0 0 0 4.47621,-4.47725 z" /></g></svg>
