<?xml version="1.0" encoding="UTF-8" standalone="no"?>
<!-- Created with Inkscape (http://www.inkscape.org/) -->

<svg
   width="3.0413818in"
   height="0.83435076in"
   viewBox="0 0 77.251099 21.192509"
   version="1.1"
   id="svg5"
   inkscape:version="1.3 (0e150ed6c4, 2023-07-21)"
   xml:space="preserve"
   sodipodi:docname="biola-logo-black-text.svg"
   xmlns:inkscape="http://www.inkscape.org/namespaces/inkscape"
   xmlns:sodipodi="http://sodipodi.sourceforge.net/DTD/sodipodi-0.dtd"
   xmlns:xlink="http://www.w3.org/1999/xlink"
   xmlns="http://www.w3.org/2000/svg"
   xmlns:svg="http://www.w3.org/2000/svg"><sodipodi:namedview
     id="namedview7"
     pagecolor="#ffffff"
     bordercolor="#000000"
     borderopacity="0.25"
     inkscape:showpageshadow="true"
     inkscape:pageopacity="0.0"
     inkscape:pagecheckerboard="false"
     inkscape:deskcolor="#d1d1d1"
     inkscape:document-units="in"
     showgrid="false"
     inkscape:lockguides="true"
     inkscape:zoom="1.5625561"
     inkscape:cx="83.517"
     inkscape:cy="89.276794"
     inkscape:window-width="1845"
     inkscape:window-height="1057"
     inkscape:window-x="-8"
     inkscape:window-y="-8"
     inkscape:window-maximized="1"
     inkscape:current-layer="layer1"><inkscape:grid
       type="xygrid"
       id="grid7624"
       originx="-169.33906"
       originy="-341.79413"
       units="in"
       spacingx="1.5875"
       spacingy="1.5875"
       empspacing="8"
       dotted="true"
       visible="false" /></sodipodi:namedview><defs
     id="defs2" /><g
     inkscape:groupmode="layer"
     id="layer2"
     inkscape:label="JPG"
     sodipodi:insensitive="true"
     style="display:none"
     transform="translate(-73.366064,-127.39532)"><image
       width="150.8125"
       height="64.558334"
       preserveAspectRatio="none"
       xlink:href="biola-logo-horizontal.jpg"
       id="image1"
       x="36.857719"
       y="105.72254" /></g><g
     inkscape:label="Layer 1"
     inkscape:groupmode="layer"
     id="layer1"
     transform="translate(-73.366064,-127.39532)"><path
       id="path11"
       style="font-size:14.6857px;font-family:'Times New Roman';-inkscape-font-specification:'Times New Roman, Normal';letter-spacing:1.54781px;fill:#000000;fill-opacity:0.987952;stroke-width:0.264583;stroke-linecap:round;stroke-linejoin:round;paint-order:markers fill stroke"
       d="m 122.1357,129.49442 c -1.41129,0 -2.62376,0.45223 -3.63699,1.35702 -1.16738,1.04245 -1.7508,2.38924 -1.7508,4.04007 0,1.61504 0.50266,2.93233 1.51206,3.94808 1.01203,1.0184 2.26252,1.52549 3.74809,1.52549 1.46966,0 2.72177,-0.5211 3.75636,-1.56373 1.0346,-1.04262 1.55184,-2.3533 1.55184,-3.93258 0,-1.53327 -0.51688,-2.80856 -1.54358,-3.83336 -1.02658,-1.02468 -2.2363,-1.54099 -3.63698,-1.54099 z m 23.20065,0 -3.40341,8.55555 c -0.29837,0.74996 -0.56486,1.24889 -0.80667,1.495 -0.11974,0.12187 -0.38059,0.22251 -0.78497,0.29921 v 0.2837 h 3.04736 v -0.2837 c -0.46623,-0.0358 -0.77317,-0.10974 -0.91364,-0.22996 -0.14024,-0.12004 -0.2067,-0.26325 -0.2067,-0.42168 0,-0.19933 0.0955,-0.49546 0.24236,-0.90486 l 0.72761,-2.02778 3.49591,0.0279 0.76481,1.85415 c 0.19884,0.48209 0.28525,0.84068 0.28525,1.06556 0,0.16866 -0.0697,0.3107 -0.2067,0.42943 -0.13422,0.11639 -0.3929,0.18673 -0.77825,0.20723 v 0.2837 h 3.81785 v -0.2837 c -0.39486,-0.0255 -0.78329,-0.0788 -0.92759,-0.3452 0,0 -0.51856,-0.89028 -0.73484,-1.35702 -1.30061,-2.80679 -3.36827,-8.64754 -3.36827,-8.64754 z m -45.914512,0.23771 v 0.28371 h 0.342098 c 0.344294,0 0.603344,0.11257 0.777734,0.33744 0.12967,0.16867 0.19482,0.57456 0.19482,1.21853 v 6.71587 c 0,0.58265 -0.0517,0.96369 -0.15452,1.14257 -0.16544,0.27599 -0.43796,0.41393 -0.818034,0.41393 h -0.342098 v 0.2837 h 4.292242 c 1.02396,0 1.79376,-0.10812 2.2748,-0.32143 0.48651,-0.21573 0.82669,-0.61486 1.05472,-1.07538 0.22983,-0.46419 0.32814,-0.95025 0.32814,-1.46865 0,-0.68263 -0.14808,-1.25679 -0.5178,-1.74924 -0.26595,-0.35424 -1.28734,-0.85051 -1.90841,-1.00873 0.505,-0.20699 1.17365,-0.53609 1.418,-0.93483 0.24646,-0.40216 0.36048,-0.86655 0.36949,-1.35598 0.0105,-0.57101 -0.11413,-1.07119 -0.39274,-1.49914 -0.28054,-0.43091 -0.71459,-0.66943 -1.31672,-0.83044 -0.39769,-0.10634 -0.93841,-0.15193 -1.67173,-0.15193 z m 10.723372,0 v 0.28371 h 0.32195 c 0.21462,0 0.42078,0.0613 0.61753,0.18396 0.13862,0.092 0.23021,0.20193 0.27492,0.3297 0.0581,0.16866 0.0868,0.51589 0.0868,1.04231 v 6.71587 c 0,0.62353 -0.0534,1.01726 -0.16072,1.18081 -0.16991,0.25043 -0.44295,0.37569 -0.81855,0.37569 h -0.32195 v 0.2837 h 3.89692 v -0.2837 h -0.32866 c -0.21463,0 -0.41803,-0.0613 -0.6103,-0.18397 -0.14309,-0.092 -0.23692,-0.20192 -0.28163,-0.3297 -0.0581,-0.16865 -0.0873,-0.5164 -0.0873,-1.04283 v -6.71587 c 0,-0.62353 0.0562,-1.01673 0.16795,-1.18029 0.16992,-0.25043 0.44019,-0.37568 0.81132,-0.37568 h 0.32866 v -0.28371 z m 19.84427,0 v 0.28371 h 0.34727 c 0.34972,0 0.61359,0.1121 0.79013,0.33744 0.12775,0.16308 0.1912,0.56944 0.1912,1.21853 v 6.70812 c 0,0.59287 0.005,1.01382 -0.0904,1.17719 -0.16774,0.2864 -0.50031,0.38706 -0.8909,0.38706 h -0.34727 v 0.2837 h 7.15305 c 0.16545,-0.7607 0.3852,-1.53497 0.66353,-2.32389 l -0.50023,-0.0325 c -0.11067,0.62427 -0.47934,1.34675 -1.079,1.67948 -0.28613,0.11753 -0.78338,0.17622 -1.4919,0.17622 h -0.6749 c -0.59496,0 -0.9489,-0.0254 -1.06246,-0.0765 -0.11358,-0.0511 -0.21062,-0.28778 -0.26252,-0.39636 -0.0752,-0.15724 -0.10904,-0.45016 -0.10904,-0.87437 v -6.53138 c 0,-0.61842 0.0363,-1.00951 0.10904,-1.17306 0.0727,-0.16355 0.20562,-0.29996 0.40153,-0.40617 0.19923,-0.10802 0.54508,-0.15848 1.03559,-0.15348 v -0.28371 z m -8.00519,0.32195 c 1.02927,0 2.04903,0.34623 2.63084,1.04283 0.72869,0.87245 1.09038,2.19998 1.09038,3.97857 0,1.6406 -0.33309,2.84055 -0.99478,3.60339 -0.65941,0.76021 -1.70532,1.14205 -2.71869,1.14205 -0.94971,0 -1.88503,-0.34558 -2.46135,-1.04231 -0.75539,-0.91322 -1.12965,-2.22077 -1.12965,-3.91759 0,-1.65593 0.3573,-2.91115 1.08986,-3.77186 0.58846,-0.6914 1.52776,-1.03508 2.49339,-1.03508 z m -18.75545,0.12557 c 0.8219,-0.008 1.22526,0.28527 1.56528,0.66611 0.34002,0.38085 0.6154,0.75225 0.58859,1.31413 -0.0173,0.36357 -0.094,0.72527 -0.24287,1.05007 -0.14886,0.32479 -0.36414,0.59722 -0.66146,0.77153 -0.29231,0.17136 -0.73803,0.28652 -1.35703,0.32814 -0.40263,0.0271 -0.61628,0.13244 -1.09709,0.0357 v -3.99459 c 0.35772,-0.11241 0.7627,-0.16696 1.20458,-0.17105 z m 41.78401,1.48932 1.52446,4.05143 -3.05925,-0.0295 z m -41.80158,3.31245 c 0.63942,-6.3e-4 1.17599,0.0982 1.60972,0.32195 0.43374,0.22376 0.71026,0.50642 0.86713,0.89452 0.15688,0.38809 0.22629,0.76753 0.22996,1.17615 0.006,0.6207 -0.13562,1.11333 -0.52555,1.52808 -0.39011,0.40961 -1.02311,0.68109 -1.83244,0.68109 -0.50527,0 -1.01714,-0.0687 -1.53583,-0.2067 v -4.32636 c 0.12073,-0.0275 0.2792,-0.0416 0.47594,-0.0537 0.19675,-0.0121 0.43385,-0.0147 0.71107,-0.015 z"
       inkscape:label="BIOLA" /><path
       d="m 92.45532,158.92808 q -0.353889,0 -0.606667,-0.13848 -0.25058,-0.14067 -0.382465,-0.40664 -0.131884,-0.26816 -0.131884,-0.64403 v -2.03981 h 0.448407 v 2.05519 q 0,0.3495 0.175845,0.54073 0.175846,0.19123 0.496764,0.19123 0.323117,0 0.498962,-0.19123 0.178044,-0.19123 0.178044,-0.54073 v -2.05519 h 0.448407 v 2.03981 q 0,0.37587 -0.131884,0.64403 -0.131885,0.26597 -0.384663,0.40664 -0.252778,0.13848 -0.608866,0.13848 z m 4.387316,-3.22896 h 0.406643 l 1.562829,2.47063 -0.05275,0.0572 v -2.52778 h 0.444011 v 3.19379 h -0.41104 l -1.558432,-2.43326 0.05275,-0.0572 v 2.49041 h -0.444011 z m 6.158964,3.19599 h -0.44841 v -3.19599 h 0.44841 z m 3.10804,-3.19599 h 0.48797 l 0.76713,2.5058 0.76712,-2.5058 h 0.48797 l -1.04188,3.19599 h -0.42643 z m 5.55229,0 h 0.44841 v 3.19599 h -0.44841 z m 0.21761,2.76957 h 1.83539 v 0.42642 h -1.83539 z m 0,-1.3738 h 1.5936 v 0.42643 h -1.5936 z m 0,-1.39577 h 1.83539 v 0.42642 h -1.83539 z m 5.22698,1.41775 h 1.09024 q 0.12749,0 0.2264,-0.0615 0.0989,-0.0616 0.15167,-0.17365 0.0549,-0.1143 0.0549,-0.26157 v 0 q 0,-0.14727 -0.0549,-0.25938 -0.0528,-0.11429 -0.15167,-0.17584 -0.0967,-0.0615 -0.2264,-0.0615 h -1.09024 v -0.42642 h 1.07266 q 0.27695,0 0.48577,0.1143 0.21102,0.1143 0.32532,0.32531 0.11649,0.20882 0.11649,0.48358 v 0 q 0,0.27476 -0.11649,0.48577 -0.1165,0.20882 -0.32752,0.32312 -0.20881,0.1143 -0.48357,0.1143 h -1.07266 z m -0.19563,-1.41995 h 0.44841 v 3.19819 h -0.44841 z m 1.06607,1.74746 0.4462,-0.10111 0.81769,1.55184 h -0.53194 z m 5.29951,1.4837 q -0.2308,0 -0.43741,-0.044 -0.20662,-0.044 -0.38687,-0.13188 -0.17804,-0.0879 -0.3341,-0.21981 v 0 l 0.27915,-0.3429 v 0 q 0.18244,0.15826 0.40225,0.23739 0.21981,0.0791 0.47698,0.0791 0.3473,0 0.53853,-0.12749 0.19123,-0.12968 0.19123,-0.36488 v -0.002 q 0,-0.16706 -0.0879,-0.26377 -0.0857,-0.0989 -0.22421,-0.14507 -0.13628,-0.0484 -0.35388,-0.0879 -0.007,-0.002 -0.0154,-0.002 -0.007,0 -0.0132,-0.002 l -0.033,-0.007 q -0.32092,-0.0549 -0.52314,-0.12309 -0.20003,-0.0703 -0.3429,-0.25278 -0.14288,-0.18464 -0.14288,-0.52314 v -0.002 q 0,-0.29674 0.13189,-0.50555 0.13408,-0.21102 0.38906,-0.32092 0.25497,-0.10991 0.61326,-0.10991 0.17145,0 0.3363,0.0374 0.16706,0.0374 0.32752,0.1121 0.16265,0.0725 0.31872,0.18464 v 0 l -0.25498,0.35609 v 0 q -0.18244,-0.13408 -0.36488,-0.20003 -0.18024,-0.0681 -0.36268,-0.0681 -0.32751,0 -0.50995,0.13189 -0.18024,0.12968 -0.18024,0.36927 v 0.002 q 0,0.16486 0.0923,0.25937 0.0945,0.0945 0.233,0.14068 0.14068,0.044 0.38906,0.0923 0.009,0.002 0.0154,0.004 0.009,0 0.0176,0.002 0.011,0.002 0.0242,0.004 0.0132,0.002 0.0242,0.004 0.29014,0.0593 0.48357,0.14067 0.19563,0.0813 0.32532,0.26377 0.13188,0.18024 0.13188,0.49457 v 0.004 q 0,0.29235 -0.13848,0.50116 -0.13848,0.20662 -0.40224,0.31653 -0.26157,0.1077 -0.63305,0.1077 z m 4.77418,-0.033 h -0.44841 v -3.19599 h 0.44841 z m 3.98946,-2.93442 h 0.44841 v 2.93442 h -0.44841 z m -0.9034,-0.26157 h 2.25522 v 0.42642 h -2.25522 z m 6.38975,1.89693 v 1.29906 h -0.4484 v -1.29906 l -0.97375,-1.89693 h 0.49896 l 0.69899,1.44193 0.69899,-1.44193 h 0.49896 z"
       id="text12"
       style="font-size:4.50165px;font-family:Bahnschrift;-inkscape-font-specification:'Bahnschrift, Normal';letter-spacing:2.55852px;fill:#000000;fill-opacity:0.987952;stroke-width:0.264583;stroke-linecap:round;stroke-linejoin:round;paint-order:markers fill stroke"
       transform="scale(1.0861739,0.9206629)"
       aria-label="UNIVERSITY"
       inkscape:label="UNIVERSITY" /><path
       id="path16"
       style="fill:#cf152d;fill-opacity:1;stroke:none;stroke-width:0.264583;stroke-linecap:round;stroke-linejoin:round;stroke-opacity:1;paint-order:markers fill stroke"
       d="m 83.962317,127.39532 c -5.852174,0 -10.596252,4.74407 -10.596253,10.59626 1e-6,5.85217 4.744079,10.59625 10.596253,10.59625 5.852174,0 10.596253,-4.74408 10.596252,-10.59625 0,-1.07026 -0.158618,-2.10345 -0.453719,-3.07733 l -2.687174,2.65203 c 0.748366,3.85908 -1.692543,7.78192 -5.46685,9.02839 -4.683292,1.54667 -9.745593,-1.29573 -11.218953,-5.9123 -1.643118,-5.14849 1.502112,-10.68248 6.604764,-12.25868 3.598757,-1.11167 7.527468,-0.11167 10.249504,2.37918 l 0.08578,-0.076 c -1.931799,-2.04844 -4.669567,-3.33158 -7.709607,-3.33158 z m 0,2.36472 c -4.546176,0 -8.231536,3.68535 -8.231539,8.23154 -2e-6,4.54616 3.685359,8.23154 8.231539,8.23154 0.149817,0 0.298638,-0.004 0.446484,-0.0119 l -1.46761,-1.526 c -2.615081,-0.26766 -4.973173,-2.13989 -5.805848,-4.77284 -1.23484,-3.90462 1.129246,-8.10171 4.964039,-9.29711 2.750061,-0.85725 5.706958,-0.0517 7.744746,1.85157 l 0.126091,-0.094 c -1.503085,-1.60701 -3.636777,-2.61276 -6.007902,-2.61276 z m -0.134876,1.43764 c 0,0.53689 -0.119063,0.95621 -0.488859,1.32033 l -1.44849,1.42627 c -0.245279,0.24152 -0.320394,0.44167 -0.320394,0.85111 0,0.40944 0.07511,0.60959 0.320394,0.85111 l 2.381767,2.34508 2.38125,-2.34508 c 0.245276,-0.24152 0.32091,-0.44167 0.32091,-0.85111 0,-0.40944 -0.07402,-0.61119 -0.32091,-0.85111 z m -4.788855,3.0825 v 4.5346 c 0,0.38495 0.191642,0.77453 0.523483,1.10743 l 4.684468,4.69945 4.684986,-4.69945 c 0.331838,-0.3329 0.523482,-0.72248 0.523482,-1.10743 v -4.5346 l -4.669483,4.51962 c -0.325315,0.31489 -0.387993,0.61899 -0.538985,1.3472 -0.150992,-0.72821 -0.21315,-1.03231 -0.538468,-1.3472 z"
       inkscape:label="logo" /></g></svg>
