<?xml version="1.0" encoding="UTF-8" standalone="no"?>
<!-- Created with Inkscape (http://www.inkscape.org/) -->

<svg
   width="3.125in"
   height="3.125in"
   viewBox="0 0 79.375 79.375"
   version="1.1"
   id="svg5"
   inkscape:version="1.2.2 (732a01da63, 2022-12-09)"
   xml:space="preserve"
   sodipodi:docname="knowledgebase.svg"
   xmlns:inkscape="http://www.inkscape.org/namespaces/inkscape"
   xmlns:sodipodi="http://sodipodi.sourceforge.net/DTD/sodipodi-0.dtd"
   xmlns="http://www.w3.org/2000/svg"
   xmlns:svg="http://www.w3.org/2000/svg"><sodipodi:namedview
     id="namedview7"
     pagecolor="#ffffff"
     bordercolor="#000000"
     borderopacity="0.25"
     inkscape:showpageshadow="2"
     inkscape:pageopacity="0.0"
     inkscape:pagecheckerboard="0"
     inkscape:deskcolor="#d1d1d1"
     inkscape:document-units="px"
     showgrid="false"
     inkscape:lockguides="true"
     inkscape:zoom="0.70710678"
     inkscape:cx="134.35029"
     inkscape:cy="214.96046"
     inkscape:window-width="1845"
     inkscape:window-height="1057"
     inkscape:window-x="-8"
     inkscape:window-y="-8"
     inkscape:window-maximized="1"
     inkscape:current-layer="layer1"><inkscape:grid
       type="xygrid"
       id="grid7624"
       originx="-73.251441"
       originy="-79.483261" /></sodipodi:namedview><defs
     id="defs2" /><g
     inkscape:label="Layer 1"
     inkscape:groupmode="layer"
     id="layer1"
     transform="translate(-73.251441,-79.483261)"><circle
       style="fill:#2268ab;fill-opacity:1;stroke:#000000;stroke-width:0;stroke-linecap:round;stroke-linejoin:round;paint-order:markers fill stroke"
       id="path353"
       cx="112.93894"
       cy="119.17076"
       r="39.6875" /><circle
       style="fill:#d9edf7;fill-opacity:1;stroke:#000000;stroke-width:0;stroke-linecap:round;stroke-linejoin:round;paint-order:markers fill stroke"
       id="circle909"
       cx="112.93894"
       cy="119.17076"
       r="37.041672" /><g
       id="g2529"
       transform="translate(17.688928,26.566591)"
       style="fill:#1d283a;fill-opacity:1"><path
         id="path2054"
         style="fill:#1d283a;fill-opacity:1;stroke:#000000;stroke-width:0;stroke-linecap:round;stroke-linejoin:round;paint-order:markers fill stroke"
         d="m 95.580729,77.7875 c -7.306259,3e-6 -13.229171,5.922908 -13.229167,13.229167 6e-6,9.260403 8.135938,10.847923 8.135938,16.933333 -0.732895,0 -1.322917,0.59002 -1.322917,1.32292 0,0.73289 0.590022,1.32291 1.322917,1.32291 h 10.05417 c 0.73289,0 1.32291,-0.59002 1.32291,-1.32291 0,-0.7329 -0.59002,-1.32292 -1.32291,-1.32292 0,-5.82082 8.26823,-7.67293 8.26823,-16.933333 0,-7.306268 -5.9229,-13.229177 -13.229171,-13.229167 z m -3.374471,3.001884 c 0.05365,-5.42e-4 0.107287,0.0045 0.159164,0.01447 0.264115,0.05083 0.495838,0.233487 0.592728,0.504362 0.115943,0.324188 -0.06144,0.866096 -0.479557,1.02371 -2.892422,1.090471 -4.993082,3.478655 -5.647201,6.472474 -0.09358,0.42827 -0.516314,0.699991 -0.944645,0.606681 -0.428329,-0.09331 -0.700061,-0.516331 -0.606681,-0.944645 0.76786,-3.522191 3.281224,-6.369242 6.657991,-7.627442 0.08825,-0.03288 0.178778,-0.0487 0.268201,-0.04961 z" /><rect
         style="fill:#1d283a;fill-opacity:1;stroke:#000000;stroke-width:0;stroke-linecap:round;stroke-linejoin:round;paint-order:markers fill stroke"
         id="rect2110"
         width="12.7"
         height="2.6458333"
         x="89.164581"
         y="111.125"
         rx="1.3229166"
         ry="1.3229166" /><path
         id="rect2112"
         style="fill:#1d283a;fill-opacity:1;stroke:#000000;stroke-width:0;stroke-linecap:round;stroke-linejoin:round;paint-order:markers fill stroke"
         d="m 90.4875,114.3 c -0.732895,0 -1.322917,0.59002 -1.322917,1.32292 0,0.73289 0.529167,1.32291 1.322917,1.32291 2.910417,0 1.058333,2.38125 5.027083,2.38125 4.497917,0 2.116667,-2.38125 5.027087,-2.38125 0.79375,0 1.32291,-0.59002 1.32291,-1.32291 0,-0.7329 -0.59002,-1.32292 -1.32291,-1.32292 z"
         sodipodi:nodetypes="ssssssss" /></g><g
       id="g2179"
       transform="translate(17.688928,26.566591)"
       style="fill:#1d283a;fill-opacity:1"><rect
         style="fill:#1d283a;fill-opacity:1;stroke:#000000;stroke-width:0;stroke-linecap:round;stroke-linejoin:round;paint-order:markers fill stroke"
         id="rect2116"
         width="2.6458333"
         height="7.6729164"
         x="94.25782"
         y="66.410416"
         rx="1.3229166"
         ry="1.3229166"
         inkscape:transform-center-x="-2.5033951e-06"
         inkscape:transform-center-y="-20.769789" /><rect
         style="fill:#1d283a;fill-opacity:1;stroke:#000000;stroke-width:0;stroke-linecap:round;stroke-linejoin:round;paint-order:markers fill stroke"
         id="rect2160"
         width="2.6458333"
         height="7.6729164"
         x="130.62137"
         y="-27.833532"
         rx="1.3229166"
         ry="1.3229166"
         inkscape:transform-center-x="-14.686458"
         inkscape:transform-center-y="-14.686458"
         transform="rotate(45)" /><rect
         style="fill:#1d283a;fill-opacity:1;stroke:#000000;stroke-width:0;stroke-linecap:round;stroke-linejoin:round;paint-order:markers fill stroke"
         id="rect2162"
         width="2.6458333"
         height="7.6729164"
         x="89.693748"
         y="-120.18698"
         rx="1.3229166"
         ry="1.3229166"
         inkscape:transform-center-x="-20.769788"
         inkscape:transform-center-y="2.2578753e-06"
         transform="rotate(90)" /><rect
         style="fill:#1d283a;fill-opacity:1;stroke:#000000;stroke-width:0;stroke-linecap:round;stroke-linejoin:round;paint-order:markers fill stroke"
         id="rect2164"
         width="2.6458333"
         height="7.6729164"
         x="-4.5502009"
         y="-156.55054"
         rx="1.3229166"
         ry="1.3229166"
         inkscape:transform-center-x="-14.68646"
         inkscape:transform-center-y="14.686463"
         transform="rotate(135)" /><rect
         style="fill:#1d283a;fill-opacity:1;stroke:#000000;stroke-width:0;stroke-linecap:round;stroke-linejoin:round;paint-order:markers fill stroke"
         id="rect2166"
         width="2.6458333"
         height="7.6729164"
         x="-133.2672"
         y="-21.378965"
         rx="1.3229166"
         ry="1.3229166"
         inkscape:transform-center-x="14.686466"
         inkscape:transform-center-y="14.686458"
         transform="rotate(-135)" /><rect
         style="fill:#1d283a;fill-opacity:1;stroke:#000000;stroke-width:0;stroke-linecap:round;stroke-linejoin:round;paint-order:markers fill stroke"
         id="rect2168"
         width="2.6458333"
         height="7.6729164"
         x="-92.339577"
         y="70.97448"
         rx="1.3229166"
         ry="1.3229166"
         inkscape:transform-center-x="20.769797"
         inkscape:transform-center-y="-2.8326309e-06"
         transform="rotate(-90)" /><rect
         style="fill:#1d283a;fill-opacity:1;stroke:#000000;stroke-width:0;stroke-linecap:round;stroke-linejoin:round;paint-order:markers fill stroke"
         id="rect2170"
         width="2.6458333"
         height="7.6729164"
         x="1.9043725"
         y="107.33803"
         rx="1.3229166"
         ry="1.3229166"
         inkscape:transform-center-x="14.686464"
         inkscape:transform-center-y="-14.686468"
         transform="rotate(-45)" /></g></g></svg>
