<?xml version="1.0" encoding="UTF-8" standalone="no"?>
<svg
   viewBox="0 0 250 249.99999"
   version="1.1"
   id="svg1"
   sodipodi:docname="report-a-problem icon.svg"
   xml:space="preserve"
   width="250"
   height="250"
   inkscape:version="1.3.2 (091e20e, 2023-11-25, custom)"
   inkscape:export-filename="report-a-problem icon.png"
   inkscape:export-xdpi="96"
   inkscape:export-ydpi="96"
   xmlns:inkscape="http://www.inkscape.org/namespaces/inkscape"
   xmlns:sodipodi="http://sodipodi.sourceforge.net/DTD/sodipodi-0.dtd"
   xmlns="http://www.w3.org/2000/svg"
   xmlns:svg="http://www.w3.org/2000/svg"><defs
     id="defs1" /><sodipodi:namedview
     id="namedview1"
     pagecolor="#ffffff"
     bordercolor="#000000"
     borderopacity="0.25"
     inkscape:showpageshadow="2"
     inkscape:pageopacity="0.0"
     inkscape:pagecheckerboard="0"
     inkscape:deskcolor="#d1d1d1"
     inkscape:zoom="2.175293"
     inkscape:cx="100.21639"
     inkscape:cy="154.69181"
     inkscape:window-width="1920"
     inkscape:window-height="1129"
     inkscape:window-x="-8"
     inkscape:window-y="-8"
     inkscape:window-maximized="1"
     inkscape:current-layer="svg1" /><!--!Font Awesome Pro 6.7.2 by @fontawesome - https://fontawesome.com License - https://fontawesome.com/license (Commercial License) Copyright 2025 Fonticons, Inc.--><g
     id="g2"><circle
       style="vector-effect:non-scaling-stroke;fill:#2268ab;fill-opacity:1;fill-rule:evenodd;stroke:none;stroke-linecap:round;stroke-linejoin:round;stroke-miterlimit:300;-inkscape-stroke:hairline"
       id="path2"
       cx="125"
       cy="125"
       r="125" /><circle
       style="vector-effect:non-scaling-stroke;fill:#d9edf7;fill-opacity:1;fill-rule:evenodd;stroke:none;stroke-width:0.929389;stroke-linecap:round;stroke-linejoin:round;stroke-miterlimit:300;-inkscape-stroke:hairline"
       id="circle2"
       cx="125"
       cy="125"
       r="116.1736" /><path
       d="m 122.64876,71.945276 c 0.495,-0.83531 1.39219,-1.330303 2.35124,-1.330303 0.95906,0 1.85624,0.494993 2.35124,1.330303 l 61.34872,100.762884 c 0.43312,0.71156 0.64969,1.51592 0.64969,2.3203 0,2.47498 -2.01093,4.48591 -4.48592,4.48591 H 65.136264 c -2.474988,0 -4.485914,-2.01093 -4.485914,-4.48591 0,-0.83531 0.216561,-1.63968 0.649684,-2.3203 z M 109.96446,64.21094 48.615728,164.97382 c -1.85624,3.03186 -2.815297,6.49684 -2.815297,10.05464 0,10.67338 8.662452,19.33583 19.335833,19.33583 H 184.86373 c 10.67338,0 19.33584,-8.66245 19.33584,-19.33583 0,-3.5578 -0.99,-7.02278 -2.81531,-10.05464 L 140.03554,64.21094 C 136.84899,58.982533 131.15653,55.765053 125,55.765053 c -6.15652,0 -11.849,3.21748 -15.03554,8.445887 z m 24.93549,95.50354 a 9.8999458,9.8999458 0 1 0 -19.79989,0 9.8999458,9.8999458 0 1 0 19.79989,0 z m -2.47499,-56.92468 c 0,-4.114673 -3.31029,-7.424968 -7.42496,-7.424968 -4.11466,0 -7.42496,3.310295 -7.42496,7.424968 v 29.69983 c 0,4.11467 3.3103,7.42496 7.42496,7.42496 4.11467,0 7.42496,-3.31029 7.42496,-7.42496 z"
       id="path1"
       style="fill:#1d283a;fill-opacity:1;stroke-width:0.309373" /></g></svg>
